<?xml version="1.0" encoding="UTF-8"?>
<svg xmlns="http://www.w3.org/2000/svg" xmlns:xlink="http://www.w3.org/1999/xlink" width="2112" height="2112" viewBox="0 0 2112 2112">
<rect x="-211.2" y="-211.2" width="2534.4" height="2534.4" fill="transparent" fill-opacity="1"/>
<path fill-rule="evenodd" fill="rgb(75.193787%, 47.851562%, 8.250427%)" fill-opacity="1" d="M 321.367188 913.769531 C 321.367188 913.769531 308.585938 967.261719 208.710938 983.351562 C 147.175781 993.289062 147.175781 942.640625 147.175781 942.640625 C 147.175781 942.640625 173.210938 936.488281 164.214844 917.550781 C 155.695312 898.621094 142.914062 905.71875 132.027344 907.609375 C 120.667969 909.03125 117.355469 936.488281 122.089844 946.429688 C 126.820312 956.839844 154.75 1007.488281 214.390625 991.871094 C 273.558594 975.78125 296.753906 963.941406 334.621094 908.558594 L 321.367188 913.769531 "/>
<path fill-rule="evenodd" fill="rgb(75.193787%, 47.851562%, 8.250427%)" fill-opacity="1" d="M 334.621094 908.558594 C 334.621094 908.558594 274.03125 1015.539062 205.871094 1040.148438 C 158.0625 1057.660156 149.542969 1028.789062 149.542969 1028.789062 C 149.542969 1028.789062 160.429688 1020.738281 157.117188 1010.328125 C 154.277344 999.441406 139.601562 1000.390625 131.082031 1004.648438 C 122.5625 1008.910156 120.195312 1024.53125 123.980469 1031.628906 C 127.769531 1038.730469 151.910156 1069.5 203.503906 1049.140625 C 255.097656 1028.789062 301.011719 979.089844 345.980469 903.351562 L 334.621094 908.558594 "/>
<path fill-rule="evenodd" fill="rgb(75.193787%, 47.851562%, 8.250427%)" fill-opacity="1" d="M 1056 655.320312 C 1056 655.320312 907.371094 591.890625 699.570312 657.210938 C 538.632812 708.339844 451.539062 865.488281 451.539062 865.488281 C 451.539062 865.488281 381.007812 853.648438 344.5625 908.558594 C 344.5625 908.558594 183.148438 970.570312 144.808594 862.648438 C 124.929688 805.839844 180.78125 784.539062 180.78125 784.539062 C 180.78125 784.539062 213.445312 774.601562 227.171875 813.421875 C 236.636719 838.511719 206.816406 844.191406 206.816406 844.191406 C 206.816406 844.191406 181.730469 848.449219 183.621094 821.460938 C 183.621094 821.460938 191.671875 837.089844 205.398438 833.300781 C 218.652344 829.039062 221.964844 823.359375 216.757812 811.519531 C 212.023438 799.691406 196.878906 787.859375 182.203125 794.011719 C 167.53125 799.691406 144.808594 822.890625 158.0625 856.96875 C 171.316406 891.050781 219.125 880.160156 225.75 874.949219 C 232.378906 869.269531 283.027344 856.019531 338.40625 749.519531 C 393.789062 642.539062 497.453125 680.878906 504.078125 692.238281 C 504.078125 692.238281 495.558594 657.210938 535.792969 643.011719 C 568.453125 631.648438 582.179688 661 582.179688 661 C 582.179688 661 789.507812 543.609375 1056 655.320312 "/>
<path fill-rule="evenodd" fill="rgb(99.609375%, 99.609375%, 99.609375%)" fill-opacity="1" d="M 509.757812 711.648438 C 509.757812 711.648438 476.152344 696.03125 454.378906 706.921875 C 437.808594 714.960938 418.875 723.011719 443.015625 762.769531 C 443.015625 762.769531 446.804688 757.558594 441.597656 747.621094 C 436.390625 737.679688 466.210938 723.011719 471.890625 747.621094 C 477.570312 772.238281 464.316406 777.921875 452.011719 780.761719 C 439.703125 783.601562 425.976562 783.601562 417.929688 758.511719 C 410.355469 736.261719 418.875 704.078125 456.742188 695.558594 C 492.71875 687.03125 509.757812 711.648438 509.757812 711.648438 "/>
<path fill-rule="evenodd" fill="rgb(99.609375%, 99.609375%, 99.609375%)" fill-opacity="1" d="M 444.910156 695.558594 C 444.910156 695.558594 392.84375 714.019531 408.9375 784.539062 C 408.9375 784.539062 392.367188 791.640625 386.6875 767.980469 C 381.480469 743.839844 412.25 695.558594 444.910156 695.558594 "/>
<path fill-rule="evenodd" fill="rgb(99.609375%, 99.609375%, 99.609375%)" fill-opacity="1" d="M 416.511719 698.871094 C 416.511719 698.871094 365.863281 728.21875 381.480469 794.011719 C 381.480469 794.011719 374.855469 838.980469 360.183594 801.109375 C 345.980469 763.71875 375.328125 721.121094 416.511719 698.871094 "/>
<path fill-rule="evenodd" fill="rgb(99.609375%, 99.609375%, 99.609375%)" fill-opacity="1" d="M 365.386719 735.320312 C 365.386719 735.320312 339.355469 776.96875 357.8125 823.359375 C 357.8125 823.359375 346.929688 842.289062 338.882812 818.148438 C 331.308594 794.011719 350.714844 745.730469 365.386719 735.320312 "/>
<path fill-rule="evenodd" fill="rgb(99.609375%, 99.609375%, 99.609375%)" fill-opacity="1" d="M 343.613281 760.878906 C 343.613281 760.878906 326.574219 792.121094 332.253906 836.609375 C 332.253906 836.609375 323.261719 859.808594 318.054688 832.828125 C 312.371094 805.371094 338.882812 764.660156 343.613281 760.878906 "/>
<path fill-rule="evenodd" fill="rgb(99.609375%, 99.609375%, 99.609375%)" fill-opacity="1" d="M 313.792969 810.109375 C 313.792969 810.109375 304.328125 853.179688 305.273438 860.28125 C 306.691406 867.378906 296.28125 859.808594 295.804688 847.5 C 295.332031 835.191406 313.792969 810.109375 313.792969 810.109375 "/>
<path fill-rule="evenodd" fill="rgb(90.234375%, 94.139099%, 81.25%)" fill-opacity="1" d="M 291.546875 844.660156 C 291.546875 844.660156 284.445312 867.378906 284.921875 872.109375 C 284.921875 872.109375 276.871094 872.589844 277.347656 865.960938 C 277.820312 859.328125 291.546875 844.660156 291.546875 844.660156 "/>
<path fill-rule="evenodd" fill="rgb(90.234375%, 94.139099%, 81.25%)" fill-opacity="1" d="M 275.453125 857.441406 C 275.453125 857.441406 270.246094 873.058594 270.71875 876.371094 C 270.71875 876.371094 265.039062 876.851562 265.511719 872.109375 C 265.511719 867.378906 275.453125 857.441406 275.453125 857.441406 "/>
<path fill-rule="evenodd" fill="rgb(90.234375%, 94.139099%, 81.25%)" fill-opacity="1" d="M 262.671875 863.589844 C 262.671875 863.589844 257.464844 879.691406 257.9375 883 C 257.9375 883 252.257812 883.46875 252.730469 878.738281 C 253.203125 874.011719 262.671875 863.589844 262.671875 863.589844 "/>
<path fill-rule="evenodd" fill="rgb(99.609375%, 99.609375%, 99.609375%)" fill-opacity="1" d="M 192.617188 893.410156 C 192.617188 893.410156 318.527344 910.449219 417.929688 785.019531 C 417.929688 785.019531 426.449219 790.699219 430.710938 789.28125 L 426.921875 790.699219 C 426.921875 790.699219 347.875 911.871094 197.824219 897.199219 L 192.617188 893.410156 "/>
<path fill-rule="evenodd" fill="rgb(99.609375%, 99.609375%, 99.609375%)" fill-opacity="1" d="M 505.023438 705.96875 C 505.023438 705.96875 511.179688 657.210938 539.578125 651.058594 C 568.453125 644.910156 577.921875 668.570312 577.921875 668.570312 C 577.921875 668.570312 699.097656 613.671875 813.171875 622.191406 C 813.171875 622.191406 537.6875 644.429688 446.804688 845.609375 C 446.804688 845.609375 385.269531 845.609375 341.246094 894.828125 C 341.246094 894.828125 221.964844 954 164.6875 883 C 164.6875 883 220.070312 942.171875 339.355469 885.839844 C 339.355469 885.839844 372.015625 843.238281 441.125 835.671875 C 441.125 835.671875 503.605469 702.179688 674.957031 645.851562 C 674.957031 645.851562 622.414062 654.851562 574.132812 678.039062 C 574.132812 678.039062 561.355469 655.320312 539.105469 663.371094 C 516.859375 671.890625 509.757812 711.648438 509.757812 711.648438 L 505.023438 705.96875 "/>
<path fill-rule="evenodd" fill="rgb(75.193787%, 47.851562%, 8.250427%)" fill-opacity="1" d="M 1790.628906 913.769531 C 1790.628906 913.769531 1803.410156 967.261719 1903.289062 983.351562 C 1964.820312 993.289062 1964.820312 942.640625 1964.820312 942.640625 C 1964.820312 942.640625 1938.789062 936.488281 1947.78125 917.550781 C 1956.300781 898.621094 1969.078125 905.71875 1979.96875 907.609375 C 1991.328125 909.03125 1994.640625 936.488281 1989.910156 946.429688 C 1985.179688 956.839844 1957.25 1007.488281 1897.609375 991.871094 C 1838.441406 975.78125 1815.25 963.941406 1777.378906 908.558594 L 1790.628906 913.769531 "/>
<path fill-rule="evenodd" fill="rgb(75.193787%, 47.851562%, 8.250427%)" fill-opacity="1" d="M 1777.378906 908.558594 C 1777.378906 908.558594 1837.96875 1015.539062 1906.128906 1040.148438 C 1953.941406 1057.660156 1962.460938 1028.789062 1962.460938 1028.789062 C 1962.460938 1028.789062 1951.570312 1020.738281 1954.878906 1010.328125 C 1957.71875 999.441406 1972.398438 1000.390625 1980.921875 1004.648438 C 1989.441406 1008.910156 1991.808594 1024.53125 1988.019531 1031.628906 C 1984.230469 1038.730469 1960.089844 1069.5 1908.5 1049.140625 C 1856.898438 1028.789062 1810.988281 979.089844 1766.019531 903.351562 L 1777.378906 908.558594 "/>
<path fill-rule="evenodd" fill="rgb(75.193787%, 47.851562%, 8.250427%)" fill-opacity="1" d="M 1056 655.320312 C 1056 655.320312 1204.628906 591.890625 1412.429688 657.210938 C 1573.371094 708.339844 1660.460938 865.488281 1660.460938 865.488281 C 1660.460938 865.488281 1730.988281 853.648438 1767.441406 908.558594 C 1767.441406 908.558594 1928.851562 970.570312 1967.191406 862.648438 C 1987.070312 805.839844 1931.21875 784.539062 1931.21875 784.539062 C 1931.21875 784.539062 1898.558594 774.601562 1884.828125 813.421875 C 1875.359375 838.511719 1905.179688 844.191406 1905.179688 844.191406 C 1905.179688 844.191406 1930.269531 848.449219 1928.378906 821.460938 C 1928.378906 821.460938 1920.328125 837.089844 1906.601562 833.300781 C 1893.351562 829.039062 1890.039062 823.359375 1895.238281 811.519531 C 1899.980469 799.691406 1915.121094 787.859375 1929.800781 794.011719 C 1944.46875 799.691406 1967.191406 822.890625 1953.941406 856.96875 C 1940.679688 891.050781 1892.878906 880.160156 1886.25 874.949219 C 1879.621094 869.269531 1828.96875 856.019531 1773.589844 749.519531 C 1718.210938 642.539062 1614.550781 680.878906 1607.921875 692.238281 C 1607.921875 692.238281 1616.441406 657.210938 1576.210938 643.011719 C 1543.550781 631.648438 1529.820312 661 1529.820312 661 C 1529.820312 661 1322.488281 543.609375 1056 655.320312 "/>
<path fill-rule="evenodd" fill="rgb(99.609375%, 99.609375%, 99.609375%)" fill-opacity="1" d="M 1602.238281 711.648438 C 1602.238281 711.648438 1635.851562 696.03125 1657.621094 706.921875 C 1674.191406 714.960938 1693.121094 723.011719 1668.980469 762.769531 C 1668.980469 762.769531 1665.199219 757.558594 1670.398438 747.621094 C 1675.609375 737.679688 1645.789062 723.011719 1640.109375 747.621094 C 1634.429688 772.238281 1647.679688 777.921875 1659.988281 780.761719 C 1672.300781 783.601562 1686.019531 783.601562 1694.070312 758.511719 C 1701.640625 736.261719 1693.121094 704.078125 1655.261719 695.558594 C 1619.28125 687.03125 1602.238281 711.648438 1602.238281 711.648438 "/>
<path fill-rule="evenodd" fill="rgb(99.609375%, 99.609375%, 99.609375%)" fill-opacity="1" d="M 1667.089844 695.558594 C 1667.089844 695.558594 1719.160156 714.019531 1703.058594 784.539062 C 1703.058594 784.539062 1719.628906 791.640625 1725.308594 767.980469 C 1730.519531 743.839844 1699.75 695.558594 1667.089844 695.558594 "/>
<path fill-rule="evenodd" fill="rgb(99.609375%, 99.609375%, 99.609375%)" fill-opacity="1" d="M 1695.488281 698.871094 C 1695.488281 698.871094 1746.140625 728.21875 1730.519531 794.011719 C 1730.519531 794.011719 1737.140625 838.980469 1751.820312 801.109375 C 1766.019531 763.71875 1736.671875 721.121094 1695.488281 698.871094 "/>
<path fill-rule="evenodd" fill="rgb(99.609375%, 99.609375%, 99.609375%)" fill-opacity="1" d="M 1746.609375 735.320312 C 1746.609375 735.320312 1772.648438 776.96875 1754.191406 823.359375 C 1754.191406 823.359375 1765.070312 842.289062 1773.121094 818.148438 C 1780.691406 794.011719 1761.289062 745.730469 1746.609375 735.320312 "/>
<path fill-rule="evenodd" fill="rgb(99.609375%, 99.609375%, 99.609375%)" fill-opacity="1" d="M 1768.390625 760.878906 C 1768.390625 760.878906 1785.429688 792.121094 1779.75 836.609375 C 1779.75 836.609375 1788.738281 859.808594 1793.949219 832.828125 C 1799.628906 805.371094 1773.121094 764.660156 1768.390625 760.878906 "/>
<path fill-rule="evenodd" fill="rgb(99.609375%, 99.609375%, 99.609375%)" fill-opacity="1" d="M 1798.210938 810.109375 C 1798.210938 810.109375 1807.671875 853.179688 1806.730469 860.28125 C 1805.308594 867.378906 1815.71875 859.808594 1816.191406 847.5 C 1816.671875 835.191406 1798.210938 810.109375 1798.210938 810.109375 "/>
<path fill-rule="evenodd" fill="rgb(90.234375%, 94.139099%, 81.25%)" fill-opacity="1" d="M 1820.449219 844.660156 C 1820.449219 844.660156 1827.550781 867.378906 1827.078125 872.109375 C 1827.078125 872.109375 1835.128906 872.589844 1834.648438 865.960938 C 1834.179688 859.328125 1820.449219 844.660156 1820.449219 844.660156 "/>
<path fill-rule="evenodd" fill="rgb(90.234375%, 94.139099%, 81.25%)" fill-opacity="1" d="M 1836.550781 857.441406 C 1836.550781 857.441406 1841.75 873.058594 1841.28125 876.371094 C 1841.28125 876.371094 1846.960938 876.851562 1846.488281 872.109375 C 1846.488281 867.378906 1836.550781 857.441406 1836.550781 857.441406 "/>
<path fill-rule="evenodd" fill="rgb(90.234375%, 94.139099%, 81.25%)" fill-opacity="1" d="M 1849.328125 863.589844 C 1849.328125 863.589844 1854.53125 879.691406 1854.058594 883 C 1854.058594 883 1859.738281 883.46875 1859.269531 878.738281 C 1858.789062 874.011719 1849.328125 863.589844 1849.328125 863.589844 "/>
<path fill-rule="evenodd" fill="rgb(99.609375%, 99.609375%, 99.609375%)" fill-opacity="1" d="M 1919.378906 893.410156 C 1919.378906 893.410156 1793.46875 910.449219 1694.070312 785.019531 C 1694.070312 785.019531 1685.550781 790.699219 1681.289062 789.28125 L 1685.078125 790.699219 C 1685.078125 790.699219 1764.128906 911.871094 1914.179688 897.199219 L 1919.378906 893.410156 "/>
<path fill-rule="evenodd" fill="rgb(99.609375%, 99.609375%, 99.609375%)" fill-opacity="1" d="M 1606.96875 705.96875 C 1606.96875 705.96875 1600.820312 657.210938 1572.421875 651.058594 C 1543.550781 644.910156 1534.078125 668.570312 1534.078125 668.570312 C 1534.078125 668.570312 1412.898438 613.671875 1298.828125 622.191406 C 1298.828125 622.191406 1574.308594 644.429688 1665.199219 845.609375 C 1665.199219 845.609375 1726.730469 845.609375 1770.75 894.828125 C 1770.75 894.828125 1890.039062 954 1947.308594 883 C 1947.308594 883 1891.929688 942.171875 1772.648438 885.839844 C 1772.648438 885.839844 1739.988281 843.238281 1670.878906 835.671875 C 1670.878906 835.671875 1608.390625 702.179688 1437.039062 645.851562 C 1437.039062 645.851562 1489.578125 654.851562 1537.871094 678.039062 C 1537.871094 678.039062 1550.648438 655.320312 1572.890625 663.371094 C 1595.140625 671.890625 1602.238281 711.648438 1602.238281 711.648438 L 1606.96875 705.96875 "/>
<path fill-rule="evenodd" fill="rgb(75.193787%, 47.851562%, 8.250427%)" fill-opacity="1" d="M 321.367188 1198.230469 C 321.367188 1198.230469 308.585938 1144.742188 208.710938 1128.648438 C 147.175781 1118.710938 147.175781 1169.359375 147.175781 1169.359375 C 147.175781 1169.359375 173.210938 1175.511719 164.214844 1194.445312 C 155.695312 1213.378906 142.914062 1206.277344 132.027344 1204.386719 C 120.667969 1202.964844 117.355469 1175.511719 122.089844 1165.570312 C 126.820312 1155.15625 154.75 1104.511719 214.390625 1120.128906 C 273.558594 1136.222656 296.753906 1148.058594 334.621094 1203.4375 L 321.367188 1198.230469 "/>
<path fill-rule="evenodd" fill="rgb(75.193787%, 47.851562%, 8.250427%)" fill-opacity="1" d="M 334.621094 1203.4375 C 334.621094 1203.4375 274.03125 1096.460938 205.871094 1071.851562 C 158.0625 1054.328125 149.542969 1083.210938 149.542969 1083.210938 C 149.542969 1083.210938 160.429688 1091.261719 157.117188 1101.671875 C 154.277344 1112.558594 139.601562 1111.609375 131.082031 1107.351562 C 122.5625 1103.089844 120.195312 1087.46875 123.980469 1080.371094 C 127.769531 1073.269531 151.910156 1042.5 203.503906 1062.859375 C 255.097656 1083.210938 301.011719 1132.910156 345.980469 1208.644531 L 334.621094 1203.4375 "/>
<path fill-rule="evenodd" fill="rgb(75.193787%, 47.851562%, 8.250427%)" fill-opacity="1" d="M 1056 1456.679688 C 1056 1456.679688 907.371094 1520.105469 699.570312 1454.785156 C 538.632812 1403.664062 451.539062 1246.511719 451.539062 1246.511719 C 451.539062 1246.511719 381.007812 1258.347656 344.5625 1203.4375 C 344.5625 1203.4375 183.148438 1141.429688 144.808594 1249.355469 C 124.929688 1306.15625 180.78125 1327.453125 180.78125 1327.453125 C 180.78125 1327.453125 213.445312 1337.394531 227.171875 1298.582031 C 236.636719 1273.492188 206.816406 1267.8125 206.816406 1267.8125 C 206.816406 1267.8125 181.730469 1263.554688 183.621094 1290.535156 C 183.621094 1290.535156 191.671875 1274.914062 205.398438 1278.699219 C 218.652344 1282.960938 221.964844 1288.640625 216.757812 1300.476562 C 212.023438 1312.308594 196.878906 1324.140625 182.203125 1317.988281 C 167.53125 1312.308594 144.808594 1289.113281 158.0625 1255.035156 C 171.316406 1220.953125 219.125 1231.839844 225.75 1237.046875 C 232.378906 1242.726562 283.027344 1255.980469 338.40625 1362.484375 C 393.789062 1469.460938 497.453125 1431.117188 504.078125 1419.757812 C 504.078125 1419.757812 495.558594 1454.785156 535.792969 1468.984375 C 568.453125 1480.347656 582.179688 1451 582.179688 1451 C 582.179688 1451 789.507812 1568.390625 1056 1456.679688 "/>
<path fill-rule="evenodd" fill="rgb(99.609375%, 99.609375%, 99.609375%)" fill-opacity="1" d="M 509.757812 1400.351562 C 509.757812 1400.351562 476.152344 1415.972656 454.378906 1405.085938 C 437.808594 1397.035156 418.875 1388.992188 443.015625 1349.230469 C 443.015625 1349.230469 446.804688 1354.4375 441.597656 1364.378906 C 436.390625 1374.316406 466.210938 1388.992188 471.890625 1364.378906 C 477.570312 1339.761719 464.316406 1334.082031 452.011719 1331.242188 C 439.703125 1328.402344 425.976562 1328.402344 417.929688 1353.488281 C 410.355469 1375.738281 418.875 1407.925781 456.742188 1416.445312 C 492.71875 1424.964844 509.757812 1400.351562 509.757812 1400.351562 "/>
<path fill-rule="evenodd" fill="rgb(99.609375%, 99.609375%, 99.609375%)" fill-opacity="1" d="M 444.910156 1416.445312 C 444.910156 1416.445312 392.84375 1397.984375 408.9375 1327.453125 C 408.9375 1327.453125 392.367188 1320.355469 386.6875 1344.023438 C 381.480469 1368.164062 412.25 1416.445312 444.910156 1416.445312 "/>
<path fill-rule="evenodd" fill="rgb(99.609375%, 99.609375%, 99.609375%)" fill-opacity="1" d="M 416.511719 1413.132812 C 416.511719 1413.132812 365.863281 1383.785156 381.480469 1317.988281 C 381.480469 1317.988281 374.855469 1273.019531 360.183594 1310.886719 C 345.980469 1348.28125 375.328125 1390.882812 416.511719 1413.132812 "/>
<path fill-rule="evenodd" fill="rgb(99.609375%, 99.609375%, 99.609375%)" fill-opacity="1" d="M 365.386719 1376.683594 C 365.386719 1376.683594 339.355469 1335.027344 357.8125 1288.640625 C 357.8125 1288.640625 346.929688 1269.707031 338.882812 1293.847656 C 331.308594 1317.988281 350.714844 1366.269531 365.386719 1376.683594 "/>
<path fill-rule="evenodd" fill="rgb(99.609375%, 99.609375%, 99.609375%)" fill-opacity="1" d="M 343.613281 1351.121094 C 343.613281 1351.121094 326.574219 1319.882812 332.253906 1275.386719 C 332.253906 1275.386719 323.261719 1252.191406 318.054688 1279.175781 C 312.371094 1306.628906 338.882812 1347.335938 343.613281 1351.121094 "/>
<path fill-rule="evenodd" fill="rgb(99.609375%, 99.609375%, 99.609375%)" fill-opacity="1" d="M 313.792969 1301.894531 C 313.792969 1301.894531 304.328125 1258.820312 305.273438 1251.71875 C 306.691406 1244.621094 296.28125 1252.191406 295.804688 1264.5 C 295.332031 1276.808594 313.792969 1301.894531 313.792969 1301.894531 "/>
<path fill-rule="evenodd" fill="rgb(90.234375%, 94.139099%, 81.25%)" fill-opacity="1" d="M 291.546875 1267.339844 C 291.546875 1267.339844 284.445312 1244.621094 284.921875 1239.886719 C 284.921875 1239.886719 276.871094 1239.414062 277.347656 1246.039062 C 277.820312 1252.667969 291.546875 1267.339844 291.546875 1267.339844 "/>
<path fill-rule="evenodd" fill="rgb(90.234375%, 94.139099%, 81.25%)" fill-opacity="1" d="M 275.453125 1254.5625 C 275.453125 1254.5625 270.246094 1238.941406 270.71875 1235.625 C 270.71875 1235.625 265.039062 1235.152344 265.511719 1239.886719 C 265.511719 1244.621094 275.453125 1254.5625 275.453125 1254.5625 "/>
<path fill-rule="evenodd" fill="rgb(90.234375%, 94.139099%, 81.25%)" fill-opacity="1" d="M 262.671875 1248.40625 C 262.671875 1248.40625 257.464844 1232.3125 257.9375 1229 C 257.9375 1229 252.257812 1228.527344 252.730469 1233.261719 C 253.203125 1237.992188 262.671875 1248.40625 262.671875 1248.40625 "/>
<path fill-rule="evenodd" fill="rgb(99.609375%, 99.609375%, 99.609375%)" fill-opacity="1" d="M 192.617188 1218.585938 C 192.617188 1218.585938 318.527344 1201.546875 417.929688 1326.980469 C 417.929688 1326.980469 426.449219 1321.300781 430.710938 1322.722656 L 426.921875 1321.300781 C 426.921875 1321.300781 347.875 1200.125 197.824219 1214.800781 L 192.617188 1218.585938 "/>
<path fill-rule="evenodd" fill="rgb(99.609375%, 99.609375%, 99.609375%)" fill-opacity="1" d="M 505.023438 1406.03125 C 505.023438 1406.03125 511.179688 1454.785156 539.578125 1460.9375 C 568.453125 1467.09375 577.921875 1443.425781 577.921875 1443.425781 C 577.921875 1443.425781 699.097656 1498.335938 813.171875 1489.8125 C 813.171875 1489.8125 537.6875 1467.566406 446.804688 1266.394531 C 446.804688 1266.394531 385.269531 1266.394531 341.246094 1217.164062 C 341.246094 1217.164062 221.964844 1157.996094 164.6875 1229 C 164.6875 1229 220.070312 1169.832031 339.355469 1226.160156 C 339.355469 1226.160156 372.015625 1268.761719 441.125 1276.335938 C 441.125 1276.335938 503.605469 1409.816406 674.957031 1466.144531 C 674.957031 1466.144531 622.414062 1457.152344 574.132812 1433.957031 C 574.132812 1433.957031 561.355469 1456.679688 539.105469 1448.632812 C 516.859375 1440.113281 509.757812 1400.351562 509.757812 1400.351562 L 505.023438 1406.03125 "/>
<path fill-rule="evenodd" fill="rgb(75.193787%, 47.851562%, 8.250427%)" fill-opacity="1" d="M 1790.628906 1198.230469 C 1790.628906 1198.230469 1803.410156 1144.742188 1903.289062 1128.648438 C 1964.820312 1118.710938 1964.820312 1169.359375 1964.820312 1169.359375 C 1964.820312 1169.359375 1938.789062 1175.511719 1947.78125 1194.445312 C 1956.300781 1213.378906 1969.078125 1206.277344 1979.96875 1204.386719 C 1991.328125 1202.964844 1994.640625 1175.511719 1989.910156 1165.570312 C 1985.179688 1155.15625 1957.25 1104.511719 1897.609375 1120.128906 C 1838.441406 1136.222656 1815.25 1148.058594 1777.378906 1203.4375 L 1790.628906 1198.230469 "/>
<path fill-rule="evenodd" fill="rgb(75.193787%, 47.851562%, 8.250427%)" fill-opacity="1" d="M 1777.378906 1203.4375 C 1777.378906 1203.4375 1837.96875 1096.460938 1906.128906 1071.851562 C 1953.941406 1054.328125 1962.460938 1083.210938 1962.460938 1083.210938 C 1962.460938 1083.210938 1951.570312 1091.261719 1954.878906 1101.671875 C 1957.71875 1112.558594 1972.398438 1111.609375 1980.921875 1107.351562 C 1989.441406 1103.089844 1991.808594 1087.46875 1988.019531 1080.371094 C 1984.230469 1073.269531 1960.089844 1042.5 1908.5 1062.859375 C 1856.898438 1083.210938 1810.988281 1132.910156 1766.019531 1208.644531 L 1777.378906 1203.4375 "/>
<path fill-rule="evenodd" fill="rgb(75.193787%, 47.851562%, 8.250427%)" fill-opacity="1" d="M 1056 1456.679688 C 1056 1456.679688 1204.628906 1520.105469 1412.429688 1454.785156 C 1573.371094 1403.664062 1660.460938 1246.511719 1660.460938 1246.511719 C 1660.460938 1246.511719 1730.988281 1258.347656 1767.441406 1203.4375 C 1767.441406 1203.4375 1928.851562 1141.429688 1967.191406 1249.355469 C 1987.070312 1306.15625 1931.21875 1327.453125 1931.21875 1327.453125 C 1931.21875 1327.453125 1898.558594 1337.394531 1884.828125 1298.582031 C 1875.359375 1273.492188 1905.179688 1267.8125 1905.179688 1267.8125 C 1905.179688 1267.8125 1930.269531 1263.554688 1928.378906 1290.535156 C 1928.378906 1290.535156 1920.328125 1274.914062 1906.601562 1278.699219 C 1893.351562 1282.960938 1890.039062 1288.640625 1895.238281 1300.476562 C 1899.980469 1312.308594 1915.121094 1324.140625 1929.800781 1317.988281 C 1944.46875 1312.308594 1967.191406 1289.113281 1953.941406 1255.035156 C 1940.679688 1220.953125 1892.878906 1231.839844 1886.25 1237.046875 C 1879.621094 1242.726562 1828.96875 1255.980469 1773.589844 1362.484375 C 1718.210938 1469.460938 1614.550781 1431.117188 1607.921875 1419.757812 C 1607.921875 1419.757812 1616.441406 1454.785156 1576.210938 1468.984375 C 1543.550781 1480.347656 1529.820312 1451 1529.820312 1451 C 1529.820312 1451 1322.488281 1568.390625 1056 1456.679688 "/>
<path fill-rule="evenodd" fill="rgb(99.609375%, 99.609375%, 99.609375%)" fill-opacity="1" d="M 1602.238281 1400.351562 C 1602.238281 1400.351562 1635.851562 1415.972656 1657.621094 1405.085938 C 1674.191406 1397.035156 1693.121094 1388.992188 1668.980469 1349.230469 C 1668.980469 1349.230469 1665.199219 1354.4375 1670.398438 1364.378906 C 1675.609375 1374.316406 1645.789062 1388.992188 1640.109375 1364.378906 C 1634.429688 1339.761719 1647.679688 1334.082031 1659.988281 1331.242188 C 1672.300781 1328.402344 1686.019531 1328.402344 1694.070312 1353.488281 C 1701.640625 1375.738281 1693.121094 1407.925781 1655.261719 1416.445312 C 1619.28125 1424.964844 1602.238281 1400.351562 1602.238281 1400.351562 "/>
<path fill-rule="evenodd" fill="rgb(99.609375%, 99.609375%, 99.609375%)" fill-opacity="1" d="M 1667.089844 1416.445312 C 1667.089844 1416.445312 1719.160156 1397.984375 1703.058594 1327.453125 C 1703.058594 1327.453125 1719.628906 1320.355469 1725.308594 1344.023438 C 1730.519531 1368.164062 1699.75 1416.445312 1667.089844 1416.445312 "/>
<path fill-rule="evenodd" fill="rgb(99.609375%, 99.609375%, 99.609375%)" fill-opacity="1" d="M 1695.488281 1413.132812 C 1695.488281 1413.132812 1746.140625 1383.785156 1730.519531 1317.988281 C 1730.519531 1317.988281 1737.140625 1273.019531 1751.820312 1310.886719 C 1766.019531 1348.28125 1736.671875 1390.882812 1695.488281 1413.132812 "/>
<path fill-rule="evenodd" fill="rgb(99.609375%, 99.609375%, 99.609375%)" fill-opacity="1" d="M 1746.609375 1376.683594 C 1746.609375 1376.683594 1772.648438 1335.027344 1754.191406 1288.640625 C 1754.191406 1288.640625 1765.070312 1269.707031 1773.121094 1293.847656 C 1780.691406 1317.988281 1761.289062 1366.269531 1746.609375 1376.683594 "/>
<path fill-rule="evenodd" fill="rgb(99.609375%, 99.609375%, 99.609375%)" fill-opacity="1" d="M 1768.390625 1351.121094 C 1768.390625 1351.121094 1785.429688 1319.882812 1779.75 1275.386719 C 1779.75 1275.386719 1788.738281 1252.191406 1793.949219 1279.175781 C 1799.628906 1306.628906 1773.121094 1347.335938 1768.390625 1351.121094 "/>
<path fill-rule="evenodd" fill="rgb(99.609375%, 99.609375%, 99.609375%)" fill-opacity="1" d="M 1798.210938 1301.894531 C 1798.210938 1301.894531 1807.671875 1258.820312 1806.730469 1251.71875 C 1805.308594 1244.621094 1815.71875 1252.191406 1816.191406 1264.5 C 1816.671875 1276.808594 1798.210938 1301.894531 1798.210938 1301.894531 "/>
<path fill-rule="evenodd" fill="rgb(90.234375%, 94.139099%, 81.25%)" fill-opacity="1" d="M 1820.449219 1267.339844 C 1820.449219 1267.339844 1827.550781 1244.621094 1827.078125 1239.886719 C 1827.078125 1239.886719 1835.128906 1239.414062 1834.648438 1246.039062 C 1834.179688 1252.667969 1820.449219 1267.339844 1820.449219 1267.339844 "/>
<path fill-rule="evenodd" fill="rgb(90.234375%, 94.139099%, 81.25%)" fill-opacity="1" d="M 1836.550781 1254.5625 C 1836.550781 1254.5625 1841.75 1238.941406 1841.28125 1235.625 C 1841.28125 1235.625 1846.960938 1235.152344 1846.488281 1239.886719 C 1846.488281 1244.621094 1836.550781 1254.5625 1836.550781 1254.5625 "/>
<path fill-rule="evenodd" fill="rgb(90.234375%, 94.139099%, 81.25%)" fill-opacity="1" d="M 1849.328125 1248.40625 C 1849.328125 1248.40625 1854.53125 1232.3125 1854.058594 1229 C 1854.058594 1229 1859.738281 1228.527344 1859.269531 1233.261719 C 1858.789062 1237.992188 1849.328125 1248.40625 1849.328125 1248.40625 "/>
<path fill-rule="evenodd" fill="rgb(99.609375%, 99.609375%, 99.609375%)" fill-opacity="1" d="M 1919.378906 1218.585938 C 1919.378906 1218.585938 1793.46875 1201.546875 1694.070312 1326.980469 C 1694.070312 1326.980469 1685.550781 1321.300781 1681.289062 1322.722656 L 1685.078125 1321.300781 C 1685.078125 1321.300781 1764.128906 1200.125 1914.179688 1214.800781 L 1919.378906 1218.585938 "/>
<path fill-rule="evenodd" fill="rgb(99.609375%, 99.609375%, 99.609375%)" fill-opacity="1" d="M 1606.96875 1406.03125 C 1606.96875 1406.03125 1600.820312 1454.785156 1572.421875 1460.9375 C 1543.550781 1467.09375 1534.078125 1443.425781 1534.078125 1443.425781 C 1534.078125 1443.425781 1412.898438 1498.335938 1298.828125 1489.8125 C 1298.828125 1489.8125 1574.308594 1467.566406 1665.199219 1266.394531 C 1665.199219 1266.394531 1726.730469 1266.394531 1770.75 1217.164062 C 1770.75 1217.164062 1890.039062 1157.996094 1947.308594 1229 C 1947.308594 1229 1891.929688 1169.832031 1772.648438 1226.160156 C 1772.648438 1226.160156 1739.988281 1268.761719 1670.878906 1276.335938 C 1670.878906 1276.335938 1608.390625 1409.816406 1437.039062 1466.144531 C 1437.039062 1466.144531 1489.578125 1457.152344 1537.871094 1433.957031 C 1537.871094 1433.957031 1550.648438 1456.679688 1572.890625 1448.632812 C 1595.140625 1440.113281 1602.238281 1400.351562 1602.238281 1400.351562 L 1606.96875 1406.03125 "/>
</svg>
