<?xml version="1.0" encoding="utf-8"?>
<!-- Generator: Adobe Illustrator 18.0.0, SVG Export Plug-In . SVG Version: 6.00 Build 0)  -->
<!DOCTYPE svg PUBLIC "-//W3C//DTD SVG 1.1//EN" "http://www.w3.org/Graphics/SVG/1.1/DTD/svg11.dtd">
<svg xmlns="http://www.w3.org/2000/svg" xmlns:xlink="http://www.w3.org/1999/xlink" version="1.1" id="Layer_1" x="0px" y="0px" viewBox="0 0 1700 1400" enable-background="new 0 0 1700 1400" xml:space="preserve">
<g>
	
	<g>
		<g>
			<g>
				<path fill="#552902" d="M805.6,989.5L587.8,1171v-100.9l36.5-32.5c34.5-30.7,54.3-74.7,54.3-120.9v-59l-89,89V800l216-167V989.5      z"/>
				<polygon fill="#613003" points="587.8,1171 622.6,1191.1 850,989.5 805.6,989.5     "/>
				<polygon fill="#613003" points="589.6,946.8 622.6,957.4 678.6,902 678.6,857.8     "/>
			</g>
			<g>
				<path fill="#552902" d="M894.4,989.5l217.8,181.6v-100.9l-36.5-32.5c-34.5-30.7-54.3-74.7-54.3-120.9v-59l89,89V800l-216-167      V989.5z"/>
				<polygon fill="#613003" points="1112.2,1171 1077.4,1191.1 850,989.5 894.4,989.5     "/>
				<polygon fill="#613003" points="1110.4,946.8 1077.4,957.4 1021.4,902 1021.4,857.8     "/>
			</g>
			<g>
				<polygon fill="#E69814" points="850,945.1 439.8,824 439.8,292.7 850,413.7     "/>
				<polygon fill="#B06010" points="439.8,292.7 395.3,336.9 395.3,868.2 439.8,824     "/>
				<polygon fill="#7B3F0A" points="850,945.1 439.8,824 395.3,868.2 805.6,989.5     "/>
			</g>
			<g>
				<polygon fill="#E69814" points="850,945.1 1260.2,824 1260.2,292.7 850,413.7     "/>
				<polygon fill="#B06010" points="1260.2,292.7 1304.7,336.9 1304.7,868.2 1260.2,824     "/>
				<polygon fill="#7B3F0A" points="850,945.1 1260.2,824 1304.7,868.2 894.4,989.5     "/>
			</g>
			<polygon fill="#613003" points="805.6,989.5 850,945.1 894.4,989.5    "/>
		</g>
		<g>
			<g>
				<polygon fill="#565B43" points="852.1,891.2 469,778.8 469,357.8 852.1,470.2     "/>
				<polygon fill="#31322D" points="469,778.8 457.2,790.1 852.1,907.6 852.1,891.2     "/>
				<polygon fill="#42443A" points="469,357.8 457.2,369.1 457.2,790.1 469,778.8     "/>
			</g>
			<g>
				<polygon fill="#565B43" points="852.1,891.2 1235.1,778.8 1235.1,357.8 852.1,470.2     "/>
				<polygon fill="#31322D" points="1235.1,778.8 1246.9,790.1 852.1,907.6 852.1,891.2     "/>
				<polygon fill="#42443A" points="1235.1,357.8 1246.9,369.1 1246.9,790.1 1235.1,778.8     "/>
			</g>
			<polygon fill="#D8D6D0" points="850,798.7 1157.6,708 1157.6,309.6 850,400.3    "/>
			<path fill="#E9E8E4" d="M850,799.3l22.6-42.4c44.7-83.9,128.3-139.9,222.9-149.6h0V208.9l-25,4.5     c-91.6,16.5-169.3,76.7-208.4,161.2L850,400.9V799.3z"/>
			<polygon fill="#BA9970" points="1157.6,708 1224.3,774.3 916.7,865.4 850,798.7    "/>
			<polygon fill="#FFFFFF" points="850,798.7 542.4,708 542.4,309.6 850,400.3    "/>
			<g opacity="0.35">
				<path fill="#397B60" d="M1073.2,228c-86.7,15.7-160.6,72.8-197.5,152.8l-10.8,23.4v335.5l7.7-11.9      c46.2-71.2,120.7-119.7,204.5-133l3.5-0.6V226.7L1073.2,228z M873.3,711.8V406l10-21.7c35.5-76.8,106-131.8,189-147.6V587      C992,600.7,920.4,645.8,873.3,711.8z"/>
				<path fill="#397B60" d="M562,693.3l268.4,79.2V415L562,335.8V693.3z M570.4,347.1L822,421.3v339.9L570.4,687V347.1z"/>
			</g>
			<polygon fill="#BA9970" points="542.4,708 475.7,774.3 783.3,865.4 850,798.7    "/>
			<path fill="#917046" d="M850,798.7c-36.8,0-66.7,29.9-66.7,66.7h133.4C916.7,828.6,886.8,798.7,850,798.7z"/>
			<polygon fill="#BEAF99" points="542.4,309.6 475.7,375.9 475.7,774.3 542.4,708    "/>
			<polygon fill="#BEAF99" points="1157.6,309.6 1224.3,375.9 1224.3,774.3 1157.6,708    "/>
		</g>
		<g>
			<path fill="#A6885B" d="M839.2,1020.8c0,8.7,3.2,34.8-15.7,68.3c-8-44.1-15.7-41.1-15.7-68.3c0-8.7,7-15.7,15.7-15.7     C832.2,1005.1,839.2,1012.1,839.2,1020.8z"/>
			<circle fill="#397D61" cx="823.5" cy="1000.8" r="8.5"/>
			<path fill="#DCBB82" d="M826.5,995.5h-5.9c-2.8,0-5-2.2-5-5v-94.1c0-2.8,2.2-5,5-5h5.9c2.8,0,5,2.2,5,5v94.1     C831.5,993.3,829.2,995.5,826.5,995.5z"/>
			<g>
				<g>
					<path fill="#397D61" d="M823.5,895.4c-2.1,0-4.2-0.9-5.6-2.3c-1.5-1.5-2.3-3.5-2.3-5.6c0-2.1,0.8-4.2,2.3-5.6       c1.5-1.5,3.5-2.3,5.6-2.3c2.1,0,4.1,0.8,5.6,2.3c1.5,1.5,2.3,3.5,2.3,5.6c0,2.1-0.9,4.1-2.3,5.6       C827.7,894.5,825.6,895.4,823.5,895.4z"/>
				</g>
				<g>
					<path fill="#397D61" d="M811.4,874.4C811.4,874.4,811.4,874.4,811.4,874.4L811.4,874.4c-1.1-4,0.9-8.1,4.6-9.6l0,0       c-4,0.7-7.9-1.7-9.1-5.6l0,0c-1.1-4,0.9-8.1,4.6-9.6l0,0c-4,0.7-7.9-1.7-9.1-5.6l0,0c-1.1-4,0.9-8.1,4.6-9.6l0,0       c-4,0.7-7.9-1.7-9.1-5.6l0,0c-1.1-4,0.9-8.1,4.6-9.6l0,0c-4,0.7-7.9-1.7-9.1-5.6l0,0c-1.1-4,0.9-8.1,4.6-9.6l0,0       c-4,0.7-7.9-1.7-9.1-5.6l0,0c-1.1-4,0.9-8.1,4.6-9.6l0,0c-4,0.7-7.9-1.7-9.1-5.6l0,0c-1.2-4,0.9-8.1,4.6-9.6l0,0       c-4,0.7-7.9-1.7-9.1-5.6l0,0c-1.1-4,0.9-8.1,4.6-9.6l0,0c-4,0.7-7.9-1.7-9.1-5.6l0,0c-1.1-4,0.9-8.1,4.6-9.6l0,0       c-4,0.7-7.9-1.7-9.1-5.6l0,0l0,0l0,0c-1.1-4,0.9-8.1,4.6-9.6l0,0c-4,0.7-7.9-1.7-9.1-5.6l0,0c-1.1-4,0.9-8.1,4.6-9.6l0,0       c-4,0.7-7.9-1.7-9.1-5.6l0,0c-1.1-4,0.9-8.1,4.6-9.6l0,0c-4,0.7-7.9-1.7-9.1-5.6l0,0c-1.1-4,0.9-8.1,4.6-9.6l0,0       c-4,0.7-7.9-1.7-9.1-5.6l0,0c-1.2-4,0.9-8.1,4.6-9.6l0,0c-4,0.7-7.9-1.7-9.1-5.6l0,0c-1.1-4,0.9-8.1,4.6-9.6l0,0       c-4,0.7-7.9-1.7-9.1-5.6l0,0c-1.1-4,0.9-8.1,4.6-9.6l0,0c-4,0.7-7.9-1.7-9.1-5.6l0,0c-1.1-4,0.9-8.1,4.6-9.6l0,0       c-4,0.7-7.9-1.7-9.1-5.6l0,0c-1.1-4,0.9-8.1,4.7-9.6l0,0c-4,0.7-8-1.8-9.1-5.8l0,0c-1.1-4,1.1-8.2,5-9.6l0,0       c-4.1,0.5-8-2.2-8.8-6.3l0,0c-0.8-4.2,1.7-8.2,5.7-9.3l0,0c-4.2,0.2-7.9-2.9-8.3-7.2l0,0c-0.4-4.3,2.6-8.1,6.8-8.7l0,0       c-4.3-0.4-7.5-4-7.3-8.3l0,0l0,0l0,0c0.2-4.3,3.8-7.7,8.1-7.6l0,0c-4.2-1.1-6.8-5.4-5.7-9.6l0,0c1.1-4.3,5.4-6.9,9.7-5.8l0,0       l0,0l0,0c-3.9-2.1-5.3-6.9-3.2-10.8l0,0c2.1-3.9,6.9-5.3,10.8-3.2l0,0c0,0,0,0,0,0l0,0c-3.2-3-3.5-8-0.5-11.3l0,0       c3-3.2,8-3.5,11.3-0.5l0,0c0,0,0,0,0,0l0,0c0,0-0.1-0.1-0.1-0.1l0,0c-2.3-3.8-1-8.7,2.8-10.9l0,0c3.8-2.2,8.7-1,10.9,2.8l0,0       c0,0,0.1,0.1,0.1,0.2l0,0c0-0.1,0-0.2-0.1-0.3l0,0c-0.7-4.3,2.2-8.4,6.5-9.2l0,0c4.4-0.7,8.5,2.2,9.2,6.5l0,0       c0,0.1,0,0.3,0.1,0.4l0,0c0-0.1,0-0.2,0.1-0.4l0,0c1.1-4.3,5.4-6.9,9.7-5.8l0,0l0,0l0,0c4.3,1.1,6.9,5.4,5.8,9.7l0,0       c0,0.1-0.1,0.2-0.1,0.3l0,0c0-0.1,0.1-0.1,0.1-0.2l0,0c2.5-3.6,7.5-4.5,11.1-2l0,0c3.6,2.5,4.5,7.5,2,11.1l0,0       c0,0,0,0.1-0.1,0.1l0,0c0,0,0,0,0,0l0,0c3.4-2.7,8.4-2.2,11.2,1.3l0,0l0,0l0,0c2.7,3.4,2.2,8.5-1.3,11.2l0,0l0,0l0,0       c4-1.8,8.7,0,10.5,4l0,0c1.8,4,0.1,8.7-3.9,10.5l0,0c4.2-0.8,8.4,1.8,9.3,6.1l0,0c0.9,4.2-1.6,8.4-5.7,9.5l0,0       c4.2-0.2,7.9,3,8.2,7.3l0,0c0.4,4.2-2.7,8-6.8,8.5l0,0c4.1,0.3,7.4,3.8,7.4,8l0,0c0,4.2-3.2,7.6-7.3,7.9l0,0       c4,0.5,7.1,4,6.9,8.2l0,0c-0.1,4.1-3.4,7.4-7.4,7.7l0,0c4,0.6,7,4,6.9,8.2l0,0c-0.1,4.1-3.4,7.4-7.4,7.7l0,0c4,0.6,7,4,6.8,8.2       l0,0c-0.1,4.1-3.4,7.4-7.4,7.7l0,0c4,0.6,7,4,6.9,8.2l0,0l0,0l0,0c-0.1,4.1-3.4,7.4-7.4,7.7l0,0c4,0.6,7,4,6.8,8.2l0,0       c-0.1,4.1-3.4,7.4-7.4,7.7l0,0c4,0.6,7,4.1,6.8,8.2l0,0l0,0l0,0c-0.1,4.1-3.4,7.4-7.4,7.7l0,0c4,0.6,7,4.1,6.9,8.2l0,0       c-0.1,4.1-3.4,7.4-7.4,7.7l0,0c4,0.6,7,4.1,6.9,8.2l0,0c-0.1,4.1-3.4,7.4-7.4,7.7l0,0c4,0.6,7,4,6.8,8.2l0,0       c-0.1,4.1-3.4,7.4-7.4,7.7l0,0c4,0.6,7,4,6.8,8.2l0,0c-0.1,4.1-3.4,7.4-7.4,7.7l0,0c4,0.6,7,4,6.8,8.2l0,0l0,0l0,0       c-0.2,4.1-3.4,7.4-7.4,7.7l0,0c4,0.6,7,4.1,6.9,8.2l0,0l0,0l0,0c-0.1,4.1-3.4,7.4-7.4,7.7l0,0c4,0.6,7,4.1,6.8,8.2l0,0       c-0.1,4.1-3.4,7.4-7.4,7.7l0,0c4,0.6,7,4.1,6.9,8.2l0,0c-0.1,4.1-3.4,7.4-7.4,7.7l0,0c4,0.6,7,4.1,6.8,8.2l0,0       c-0.1,4.1-3.4,7.4-7.4,7.7l0,0c4,0.6,7,4.1,6.8,8.2l0,0l0,0l0,0c-0.1,4.1-3.4,7.4-7.4,7.7l0,0c4,0.6,7,4,6.9,8.2l0,0       c-0.1,4.1-3.4,7.4-7.4,7.7l0,0c4,0.6,7,4,6.8,8.2l0,0c0,0,0,0,0,0l0,0c-0.1,4.1-3.4,7.4-7.4,7.7l0,0c4,0.5,7,4,6.9,8.2l0,0       c-0.2,4.4-3.9,7.8-8.3,7.7l0,0c-0.4,0-0.8-0.1-1.2-0.1l0,0c-0.4,0.2-0.8,0.4-1.3,0.5l0,0c-0.7,0.2-1.5,0.3-2.2,0.3l0,0       C815.6,880.1,812.5,877.9,811.4,874.4z M820.5,864.3c0.9-0.4,1.9-0.7,3-0.8l0,0c-1.1-0.2-2.2-0.5-3.1-1.1l0,0       c-0.8,0.8-1.7,1.5-2.8,1.9l0,0c0.5-0.1,0.9-0.1,1.4-0.1l0,0C819.6,864.2,820.1,864.2,820.5,864.3z M818.8,850.2       c1.3-1.4,3.2-2.3,5.2-2.5l0,0c-2.7-0.4-4.9-2.1-6-4.4l0,0c-0.5,2.5-2.3,4.7-4.8,5.8l0,0c0.5-0.1,0.9-0.1,1.4-0.1l0,0       C816.2,849,817.6,849.4,818.8,850.2z M817.4,838.2c0.7-3.5,3.7-6.1,7.3-6.3l0,0c-4-0.6-7-4-6.9-8.2l0,0       c0.1-4.1,3.4-7.4,7.4-7.7l0,0c-4-0.6-7-4-6.8-8.2l0,0c0.1-4.1,3.4-7.4,7.4-7.7l0,0c-4-0.6-7-4.1-6.8-8.2l0,0       c0.1-4.1,3.4-7.4,7.4-7.7l0,0c-4-0.6-7-4.1-6.9-8.2l0,0c0.1-4.1,3.4-7.4,7.4-7.7l0,0c-4-0.6-7-4.1-6.8-8.2l0,0       c0.1-4.1,3.4-7.4,7.4-7.7l0,0c-4-0.6-7-4.1-6.9-8.2l0,0c0.1-4.1,3.4-7.4,7.4-7.7l0,0c-4-0.6-7-4.1-6.8-8.2l0,0       c0.1-4.1,3.4-7.4,7.4-7.7l0,0c-4-0.6-7-4.1-6.8-8.2v0c0.1-4.1,3.4-7.4,7.4-7.7l0,0c-4-0.6-7-4-6.8-8.2l0,0       c0.1-4.1,3.4-7.4,7.4-7.7l0,0c-4-0.6-7-4.1-6.9-8.2l0,0c0.1-4.1,3.4-7.4,7.4-7.7l0,0c-4-0.6-7-4.1-6.9-8.2l0,0       c0.1-4.1,3.4-7.4,7.4-7.7l0,0c-4-0.6-7-4.1-6.8-8.2l0,0c0.1-4.1,3.4-7.4,7.4-7.7l0,0c-4-0.6-7-4.1-6.9-8.2h0       c0.1-4.1,3.4-7.4,7.4-7.7l0,0c-4-0.6-7-4-6.9-8.2l0,0c0.1-4.1,3.4-7.4,7.4-7.7l0,0c-4-0.6-7-4.1-6.8-8.2v0       c0.1-4.1,3.4-7.4,7.4-7.7l0,0c-4-0.6-7-4-6.9-8.2l0,0c0.1-4.1,3.3-7.3,7.3-7.7l0,0c-3.9-0.5-6.9-3.9-6.9-7.9l0,0       c0-4,3-7.3,6.8-7.9l0,0c-3.8-0.3-7-3.3-7.4-7.3l0,0c-0.3-3.9,2.2-7.4,5.9-8.4l0,0c-3.8,0.1-7.2-2.4-8.1-6.2l0,0       c-0.8-3.7,1.1-7.4,4.4-9l0,0c-3.5,0.7-7.2-1.1-8.8-4.5l0,0c-1.5-3.4-0.5-7.3,2.3-9.5l0,0c-3.3,1.5-7.2,0.6-9.5-2.3l0,0       c-2.3-2.9-2.3-6.8-0.2-9.6l0,0c-2.7,2.2-6.6,2.4-9.5,0.3l0,0c-2.9-2-4-5.6-3.1-8.8l0,0c-1.8,2.7-5.2,4.2-8.6,3.3l0,0       c-3.3-0.8-5.6-3.6-6-6.8l0,0c-0.6,3.1-3.1,5.7-6.5,6.3l0,0c-3.4,0.6-6.7-1.1-8.3-3.9l0,0c0.7,3.2-0.7,6.7-3.7,8.5l0,0       c-3.1,1.9-7,1.4-9.5-1l0,0c1.8,3,1.6,6.9-0.9,9.6l0,0c-2.5,2.7-6.5,3.3-9.6,1.6l0,0c2.6,2.4,3.4,6.4,1.6,9.7l0,0       c-1.8,3.3-5.5,4.8-8.9,4l0,0c3.1,1.7,4.8,5.3,3.9,8.9l0,0c-0.9,3.7-4.2,6.1-7.9,6.1l0,0c3.6,0.9,6.1,4.3,5.9,8.1l0,0       c-0.2,3.9-3.1,7-6.8,7.5l0,0c3.7,0.3,6.9,3.3,7.3,7.1l0,0c0.4,3.9-2.2,7.5-5.8,8.5l0,0c3.9-0.2,7.4,2.5,8.2,6.4l0,0       c0.8,4-1.5,7.8-5.1,9.1l0,0c3.9-0.5,7.7,1.9,8.7,5.8l0,0c1.1,4-1,8-4.8,9.5l0,0c4-0.7,7.9,1.7,9,5.6l0,0c1.1,4-0.9,8.1-4.6,9.6       l0,0c4-0.7,7.9,1.7,9.1,5.6l0,0c1.1,4-0.9,8.1-4.6,9.6l0,0c4-0.7,7.9,1.7,9.1,5.6l0,0c1.1,4-0.9,8.1-4.6,9.6l0,0       c4-0.7,7.9,1.7,9.1,5.6l0,0c1.1,4-0.9,8.1-4.6,9.6l0,0c4-0.7,7.9,1.7,9.1,5.6l0,0c1.1,4-0.9,8.1-4.6,9.6l0,0       c4-0.7,7.9,1.7,9.1,5.6l0,0c1.1,4-0.9,8.1-4.7,9.6l0,0c4-0.7,7.9,1.7,9.1,5.6l0,0c1.1,4-0.9,8.1-4.6,9.6l0,0       c4-0.7,7.9,1.7,9.1,5.6l0,0c1.1,4-0.9,8.1-4.6,9.6l0,0c4-0.7,7.9,1.7,9.1,5.6l0,0c1.1,4-0.9,8.1-4.6,9.6l0,0       c4-0.7,7.9,1.7,9.1,5.6l0,0c1.1,3.9-0.9,8.1-4.6,9.6l0,0c4-0.7,7.9,1.7,9.1,5.6l0,0c1.1,4-0.9,8.1-4.6,9.6l0,0       c4-0.7,7.9,1.7,9.1,5.6l0,0c1.1,4-0.9,8.1-4.6,9.6l0,0c4-0.7,7.9,1.7,9.1,5.6l0,0c1.2,4-0.9,8.1-4.6,9.6l0,0       c4-0.7,7.9,1.7,9.1,5.6l0,0c1.1,4-0.9,8.1-4.6,9.6l0,0c4-0.7,7.9,1.7,9.1,5.6l0,0c1.1,4-0.9,8.1-4.7,9.6l0,0       c0.5-0.1,1-0.1,1.4-0.1l0,0C813.2,833.8,816,835.4,817.4,838.2z"/>
				</g>
			</g>
		</g>
	</g>
</g>
</svg>
